<svg width="34" height="14" viewBox="0 0 34 14" fill="none" xmlns="http://www.w3.org/2000/svg">
<path d="M17.9568 9.55237C17.9568 9.79523 17.795 10.0381 17.4714 10.0381H16.339V9.14761H17.4714C17.795 9.14761 17.9568 9.30952 17.9568 9.55237Z" fill="white"/>
<path d="M21.5966 9.14761C21.9202 9.14761 22.082 9.30952 22.082 9.55237C22.082 9.79523 21.9202 9.95714 21.5966 9.95714H20.4642V9.14761H21.5966Z" fill="white"/>
<path fill-rule="evenodd" clip-rule="evenodd" d="M21.7584 13.1143H33.0825C33.4072 13.1143 33.6957 13.0418 33.9722 12.9211V11.9624C33.7484 12.1271 33.45 12.2238 33.0825 12.2238H30.9794V11.3333H33.0825C33.2443 11.3333 33.406 11.2524 33.5678 11.0905C33.5678 10.9286 33.406 10.7667 33.1634 10.7667H32.1927C31.3839 10.7667 30.8986 10.2809 30.8986 9.55237C30.8986 8.8238 31.3839 8.25713 32.2736 8.25713H33.9722V7.44762H13.508L12.9418 8.17619L12.3756 7.44762H6.4709V13.1143H12.3756L12.9418 12.3048L13.508 13.1143H17.1479V11.819H17.5523C17.9568 11.819 18.2803 11.7381 18.6038 11.6571V13.1143H21.0304V12.1429L21.7584 13.1143ZM10.677 9.14761V8.25713H7.36065V12.3048H10.677V12.2238H11.9712L12.9418 10.9286L13.9124 12.2238H15.2066L13.5889 10.2L15.2066 8.17618H13.9124L12.9418 9.39047L11.9712 8.17618H10.677L12.2947 10.2L10.677 12.2238V11.4143H8.41218V10.6857H10.5961V9.79523H8.41218V9.14761H10.677ZM15.2875 12.2238H16.339V10.9286H17.5523C18.4421 10.9286 19.0083 10.3619 19.0083 9.55237C19.0083 8.74285 18.4421 8.17618 17.6332 8.17618H15.2875V12.2238ZM20.4642 10.8476H20.8687L22.082 12.3048H23.3761L22.082 10.8476C22.729 10.6857 23.1335 10.2 23.1335 9.55237C23.1335 8.74285 22.5673 8.25713 21.7584 8.25713H19.4127V12.3048H20.4642V10.8476ZM26.7734 9.14761V8.25713H23.457V12.3048H26.7734V11.4143H24.5085V10.6857H26.6925V9.79523H24.5085V9.14761H26.7734ZM29.3617 11.3333H27.2587V12.2238H29.3617C30.2515 12.2238 30.7368 11.6571 30.7368 10.9286C30.7368 10.2 30.2515 9.79523 29.4426 9.79523H28.472C28.2293 9.79523 28.1484 9.63333 28.1484 9.47142C28.1484 9.22856 28.3102 9.14761 28.472 9.14761H30.2515L30.6559 8.25713H28.5529C27.6631 8.25713 27.1778 8.8238 27.1778 9.55237C27.1778 10.2809 27.6631 10.7667 28.472 10.7667H29.4426C29.6853 10.7667 29.847 10.9286 29.847 11.0905C29.6853 11.2524 29.5235 11.3333 29.3617 11.3333Z" fill="white"/>
<path d="M33.9722 9.14761L33.9722 9.98665C33.7621 9.86079 33.4889 9.79523 33.1634 9.79523H32.1927C31.9501 9.79523 31.7883 9.63333 31.7883 9.47142C31.7883 9.22856 31.9501 9.14761 32.1927 9.14761H33.9722Z" fill="white"/>
<path d="M2.42659 1.78094L1.86038 3.15713H2.99279L2.42659 1.78094Z" fill="white"/>
<path d="M17.1479 2.10475C17.1479 1.8619 16.9861 1.69999 16.6626 1.69999H15.5302V2.50952H16.6626C16.9861 2.50952 17.1479 2.34761 17.1479 2.10475Z" fill="white"/>
<path d="M24.913 1.78094L24.3468 3.15713H25.4792L24.913 1.78094Z" fill="white"/>
<path fill-rule="evenodd" clip-rule="evenodd" d="M0 5.74762H1.69861L2.02216 4.9381H2.75013L3.07368 5.74762H16.1773V4.77619L16.9052 5.66666H20.4642V5.18095C20.9495 5.58571 21.5966 5.66666 22.1628 5.66666H24.2659L24.5894 4.85714H25.3174L25.641 5.66666H29.1191V4.69524L29.847 5.66666H32.3545V0H29.847V1.05238L29.1999 0H26.8542V1.45714L26.2072 0H22.3246C21.5966 0 21.0304 0.242856 20.5451 0.566666V0H7.92686L7.52242 1.13333L7.11799 0H4.20609V1.45714L3.559 0H1.21329L0 2.75238V4.85713V5.74762ZM0 4.85713H1.13241L1.45595 4.04761H3.31634L3.63988 4.85713H4.77229L3.07368 0.809516H1.69861L0 4.85713ZM7.84597 4.85713H6.95622L5.98558 1.8619V4.85713H4.93406V0.809516H6.55179L7.44154 3.39999L8.33129 0.809516H9.94901V4.85713H8.89749V1.8619L7.84597 4.85713ZM13.9933 0.809516V1.69999H11.7285V2.34761H13.9124V3.23809H11.7285V3.96666H13.9933V4.85713H10.677V0.809516H13.9933ZM15.9346 3.39999H15.5302L15.611 4.85713H14.5595V0.809516H16.8243C17.6332 0.809516 18.1994 1.29523 18.1994 2.10475C18.1994 2.75237 17.795 3.23809 17.1479 3.39999L18.4421 4.85713H17.1479L15.9346 3.39999ZM19.6554 4.85713H18.6038V0.809516H19.6554V4.85713ZM22.4864 3.96666L22.0011 4.85713C20.8687 4.85713 20.1407 4.12856 20.1407 2.91428V2.83333C20.1407 1.61904 20.7878 0.809516 22.082 0.809516H23.2144V1.78094H22.1628C21.4349 1.78094 21.1113 2.18571 21.1113 2.83333V2.91428C21.1113 3.5619 21.5158 3.96666 22.1628 3.96666H22.4864ZM27.3396 4.85713H26.2072L25.8836 4.04761H24.0232L23.6997 4.85713H22.5673L24.2659 0.809516H25.6409L27.3396 4.85713ZM31.303 4.85713H30.0897L28.3911 2.26666V4.85713H27.3396V0.809516H28.6337L30.2515 3.31904V0.809516H31.303V4.85713Z" fill="white"/>
</svg>
