<svg width="86" height="30" viewBox="0 0 86 30" fill="none" xmlns="http://www.w3.org/2000/svg">
<g clip-path="url(#clip0_25334_2757)">
<path fill-rule="evenodd" clip-rule="evenodd" d="M33.7423 22.8317C30.5823 25.1638 26.001 26.4039 22.0558 26.4039C16.5269 26.4039 11.5479 24.3601 7.77998 20.9579C7.48447 20.6905 7.748 20.3257 8.10358 20.5326C12.1685 22.8981 17.1959 24.3228 22.3876 24.3228C25.8901 24.3228 29.7404 23.5957 33.283 22.093C33.8174 21.8667 34.2655 22.4451 33.7423 22.8317Z" fill="#333E47"/>
<path fill-rule="evenodd" clip-rule="evenodd" d="M35.0567 21.3301C34.6522 20.8127 32.385 21.0849 31.3663 21.207C31.0577 21.2443 31.0097 20.9745 31.2878 20.7793C33.0967 19.5086 36.0609 19.8753 36.4054 20.3011C36.7522 20.7299 36.3138 23.7019 34.6193 25.1198C34.3581 25.3378 34.1101 25.2215 34.2259 24.9338C34.6076 23.9809 35.4612 21.8484 35.0567 21.3301Z" fill="#333E47"/>
<path fill-rule="evenodd" clip-rule="evenodd" d="M31.4384 11.8041V10.5698C31.4394 10.3818 31.5808 10.2568 31.7514 10.2573L37.2846 10.2568C37.4614 10.2568 37.6038 10.3852 37.6038 10.5683V11.6268C37.6019 11.8046 37.4522 12.0362 37.1872 12.4039L34.3208 16.4964C35.3846 16.4717 36.51 16.631 37.4769 17.1741C37.6949 17.2966 37.7535 17.4783 37.7705 17.6561V18.9733C37.7705 19.1549 37.5718 19.3647 37.3626 19.2557C35.6598 18.3634 33.3999 18.266 31.5164 19.2664C31.3241 19.3691 31.123 19.1617 31.123 18.9801V17.7278C31.123 17.5277 31.1269 17.1847 31.3289 16.8795L34.6492 12.1156L31.7581 12.1151C31.5813 12.1151 31.4394 11.9892 31.4384 11.8041Z" fill="#333E47"/>
<path fill-rule="evenodd" clip-rule="evenodd" d="M11.2552 19.5151H9.57183C9.41148 19.5049 9.28359 19.3848 9.27051 19.2307L9.27196 10.5908C9.27196 10.4184 9.41729 10.2803 9.59702 10.2803L11.1646 10.2798C11.3284 10.288 11.4602 10.4121 11.4703 10.57V11.6977H11.5023C11.9107 10.6068 12.6804 10.0977 13.7176 10.0977C14.7703 10.0977 15.4306 10.6068 15.9019 11.6977C16.3103 10.6068 17.2375 10.0977 18.2272 10.0977C18.9345 10.0977 19.7043 10.3888 20.1756 11.0433C20.7099 11.7709 20.6005 12.825 20.6005 13.7522L20.5985 19.2045C20.5985 19.3765 20.4537 19.5151 20.274 19.5151H18.593C18.4234 19.5044 18.2907 19.3707 18.2907 19.205L18.2902 14.6247C18.2902 14.2614 18.3217 13.3526 18.2427 13.0072C18.1173 12.4249 17.7404 12.2611 17.2535 12.2611C16.8446 12.2611 16.4203 12.5339 16.2473 12.9699C16.0744 13.4068 16.0904 14.1335 16.0904 14.6247V19.2045C16.0904 19.3765 15.945 19.5151 15.7658 19.5151H14.0843C13.9153 19.5044 13.782 19.3707 13.782 19.205L13.7801 14.6247C13.7801 13.6612 13.9376 12.2437 12.7434 12.2437C11.5333 12.2437 11.5808 13.6248 11.5808 14.6247L11.5798 19.2045C11.5798 19.3765 11.4345 19.5151 11.2552 19.5151Z" fill="#333E47"/>
<path fill-rule="evenodd" clip-rule="evenodd" d="M42.3824 11.8615C41.1413 11.8615 41.0628 13.5517 41.0628 14.6063C41.0628 15.6609 41.0473 17.9155 42.3674 17.9155C43.6715 17.9155 43.7345 16.0974 43.7345 14.9885C43.7345 14.2614 43.7025 13.3884 43.4826 12.6976C43.2941 12.0974 42.9167 11.8615 42.3824 11.8615ZM42.3674 10.0977C44.8656 10.0977 46.2167 12.2437 46.2167 14.9706C46.2167 17.6059 44.7242 19.6972 42.3674 19.6972C39.9157 19.6972 38.5801 17.5517 38.5801 14.8795C38.5801 12.1885 39.9312 10.0977 42.3674 10.0977Z" fill="#333E47"/>
<path fill-rule="evenodd" clip-rule="evenodd" d="M49.4569 19.5151H47.7793C47.6112 19.5044 47.4775 19.3707 47.4775 19.205L47.4746 10.5622C47.4891 10.4038 47.6287 10.2803 47.7982 10.2803L49.3595 10.2798C49.5068 10.2876 49.6279 10.3873 49.6589 10.5215V11.8431H49.6904C50.1623 10.6611 50.8216 10.0977 51.9842 10.0977C52.7385 10.0977 53.4772 10.3704 53.9486 11.1159C54.3885 11.8067 54.3885 12.9699 54.3885 13.8065V19.2433C54.3701 19.3964 54.2325 19.5151 54.0658 19.5151H52.3785C52.2226 19.5054 52.0971 19.3906 52.0787 19.2433V14.5525C52.0787 13.6069 52.1891 12.2248 51.026 12.2248C50.6176 12.2248 50.2402 12.4975 50.0518 12.9156C49.8159 13.4432 49.7844 13.9702 49.7844 14.5525V19.2045C49.7815 19.3765 49.6362 19.5151 49.4569 19.5151Z" fill="#333E47"/>
<path fill-rule="evenodd" clip-rule="evenodd" d="M28.7245 19.4936C28.6136 19.5934 28.4532 19.6002 28.3273 19.5328C27.7682 19.0682 27.6679 18.8536 27.3623 18.4109C26.4384 19.3521 25.784 19.6346 24.5869 19.6346C23.17 19.6346 22.0674 18.7597 22.0674 17.0109C22.0674 15.6443 22.8081 14.7151 23.8627 14.2597C24.7759 13.8586 26.0514 13.786 27.028 13.6765V13.458C27.028 13.0564 27.0595 12.5836 26.8231 12.2372C26.6182 11.9272 26.2248 11.7998 25.8784 11.7998C25.2361 11.7998 24.6659 12.1287 24.5254 12.8103C24.4959 12.9619 24.3854 13.1126 24.2333 13.1204L22.6012 12.9435C22.4637 12.9121 22.3106 12.8016 22.3498 12.5914C22.7204 10.6396 24.4634 10.0311 26.0475 10.0146H26.1725C26.9834 10.0248 28.0192 10.2472 28.6499 10.8522C29.4691 11.6176 29.3896 12.6379 29.3896 13.7496V16.3719C29.3896 17.161 29.7176 17.5069 30.0252 17.9318C30.1332 18.0853 30.157 18.267 30.0199 18.3794C29.6759 18.6676 29.065 19.1981 28.7293 19.4975L28.7245 19.4936ZM27.028 15.3895C27.028 16.0454 27.0435 16.5918 26.7131 17.1751C26.4452 17.6484 26.0199 17.94 25.5476 17.94C24.9023 17.94 24.5244 17.4483 24.5244 16.7192C24.5244 15.2853 25.8101 15.0247 27.028 15.0247V15.3895Z" fill="#333E47"/>
<path fill-rule="evenodd" clip-rule="evenodd" d="M6.65759 19.4936C6.54617 19.5934 6.38534 19.6002 6.25987 19.5328C5.70034 19.0682 5.60007 18.8536 5.29487 18.4109C4.37057 19.3521 3.71658 19.6346 2.51955 19.6346C1.10257 19.6346 0 18.7597 0 17.0109C0 15.6443 0.739732 14.7151 1.79532 14.2597C2.70848 13.8586 3.98399 13.786 4.96013 13.6765V13.458C4.96013 13.0564 4.9921 12.5836 4.7557 12.2372C4.55078 11.9272 4.15694 11.7998 3.81105 11.7998C3.16869 11.7998 2.59754 12.1287 2.45802 12.8103C2.42896 12.9619 2.31802 13.1126 2.16542 13.1204L0.533847 12.9435C0.395783 12.9121 0.242702 12.8016 0.282426 12.5914C0.652049 10.6396 2.39553 10.0311 3.98012 10.0146H4.1051C4.91604 10.0248 5.95177 10.2472 6.5825 10.8522C7.4012 11.6176 7.32223 12.6379 7.32223 13.7496V16.3719C7.32223 17.161 7.6502 17.5069 7.95781 17.9318C8.06487 18.0853 8.08958 18.267 7.95248 18.3794C7.60853 18.6676 6.99718 19.1981 6.66146 19.4975L6.65759 19.4936ZM4.96013 15.3895C4.96013 16.0454 4.97611 16.5918 4.64525 17.1751C4.37784 17.6484 3.9525 17.94 3.4797 17.94C2.83443 17.94 2.45657 17.4483 2.45657 16.7192C2.45657 15.2853 3.74274 15.0247 4.96013 15.0247V15.3895Z" fill="#333E47"/>
<path fill-rule="evenodd" clip-rule="evenodd" d="M77.3997 22.6139C77.3997 22.395 77.3997 22.1983 77.3997 21.9793C77.3997 21.7986 77.4884 21.6741 77.6768 21.6853C78.0285 21.7352 78.526 21.785 78.8792 21.7124C79.3404 21.6165 79.6712 21.2895 79.867 20.8414C80.1426 20.2106 80.3252 19.702 80.4405 19.3682L76.9386 10.693C76.8794 10.5457 76.862 10.2725 77.1561 10.2725H78.3802C78.6137 10.2725 78.7087 10.4207 78.761 10.566L81.2999 17.6126L83.7235 10.566C83.7729 10.4217 83.8722 10.2725 84.1038 10.2725H85.2582C85.5503 10.2725 85.5339 10.5452 85.4757 10.693L82.0018 19.639C81.5523 20.8297 80.9535 22.7263 79.6049 23.0557C78.9286 23.2325 78.0755 23.1686 77.5746 22.9588C77.4482 22.8954 77.3997 22.7258 77.3997 22.6139Z" fill="#333E47"/>
<path fill-rule="evenodd" clip-rule="evenodd" d="M75.766 18.9863C75.766 19.1476 75.6337 19.2798 75.4715 19.2798H74.6082C74.4217 19.2798 74.2943 19.1452 74.2705 18.9863L74.1838 18.3986C73.7871 18.7344 73.3002 19.0294 72.7722 19.2348C71.7568 19.6291 70.5864 19.6945 69.5943 19.0851C68.8769 18.6447 68.4961 17.7839 68.4961 16.8959C68.4961 16.209 68.7078 15.5279 69.1772 15.0333C69.8036 14.3575 70.7114 14.0257 71.8077 14.0257C72.4699 14.0257 73.4175 14.1036 74.1068 14.3289V13.1464C74.1068 11.944 73.6006 11.4238 72.266 11.4238C71.2457 11.4238 70.4653 11.5778 69.3792 11.9155C69.2053 11.9213 69.1036 11.789 69.1036 11.6277V10.9534C69.1036 10.7916 69.2416 10.6351 69.3913 10.5876C70.1669 10.2495 71.2656 10.0388 72.4336 10C73.9561 10 75.766 10.3435 75.766 12.6852V18.9863ZM74.1068 17.2597V15.4756C73.5274 15.3172 72.5687 15.2513 72.1977 15.2513C71.6115 15.2513 70.9696 15.3898 70.6344 15.7507C70.3839 16.0152 70.2706 16.395 70.2706 16.7622C70.2706 17.237 70.4348 17.7132 70.8185 17.9486C71.2641 18.2514 71.9554 18.2146 72.6051 18.03C73.2295 17.8527 73.8157 17.5393 74.1068 17.2597Z" fill="#333E47"/>
<path fill-rule="evenodd" clip-rule="evenodd" d="M63.0377 11.45C64.9531 11.45 65.4749 12.9561 65.4749 14.6806C65.4855 15.8433 65.2719 16.88 64.6697 17.4734C64.2192 17.9176 63.7159 18.0388 62.9582 18.0388C62.2839 18.0388 61.3969 17.6871 60.7342 17.1973V12.2662C61.424 11.7363 62.3042 11.45 63.0377 11.45ZM60.4406 22.9233H59.2843C59.1225 22.9233 58.9902 22.7911 58.9902 22.6297C58.9902 18.6138 58.9902 14.5973 58.9902 10.5814C58.9902 10.42 59.1225 10.2878 59.2843 10.2878H60.1693C60.3554 10.2878 60.4828 10.4225 60.5065 10.5814L60.5995 11.2126C61.4284 10.4767 62.4956 10.0049 63.5124 10.0049C66.3604 10.0049 67.2968 12.3515 67.2968 14.7916C67.2968 17.4022 65.8644 19.4998 63.4417 19.4998C62.4215 19.4998 61.4676 19.1234 60.7342 18.4694V22.6297C60.7342 22.7911 60.6019 22.9233 60.4406 22.9233Z" fill="#333E47"/>
</g>
<defs>
<clipPath id="clip0_25334_2757">
<rect width="86" height="30" fill="white"/>
</clipPath>
</defs>
</svg>
