<svg width="51" height="20" viewBox="0 0 51 20" fill="none" xmlns="http://www.w3.org/2000/svg">
<g clip-path="url(#clip0_25334_2747)">
<path d="M23.8892 1.12012C26.7984 1.12012 28.856 3.10314 28.856 5.99601C28.856 8.88889 26.7747 10.8952 23.8183 10.8952H20.3415V15.9578H18V1.12012H23.8892ZM20.3415 8.95888H23.2743C25.2847 8.95888 26.4672 7.88571 26.4672 6.01934C26.4672 4.15297 25.3083 3.05648 23.2743 3.05648H20.3415V8.95888Z" fill="white"/>
<path d="M29.3041 12.7617C29.3041 10.802 30.8415 9.68215 33.6323 9.49551L36.6834 9.3322V8.469C36.6834 7.18587 35.8083 6.48599 34.3182 6.48599C33.0884 6.48599 32.1896 7.11589 32.0004 8.0724H29.8954C29.9664 6.08938 31.8585 4.64294 34.3892 4.64294C37.1564 4.64294 38.9303 6.08938 38.9303 8.28237V15.9345H36.778V14.0681H36.7307C36.1158 15.2813 34.6967 16.0511 33.1593 16.0511C30.8651 16.0745 29.3041 14.7447 29.3041 12.7617ZM36.6834 11.7585V10.8953L33.9398 11.0819C32.4025 11.1752 31.5983 11.7352 31.5983 12.7383C31.5983 13.6948 32.4498 14.3014 33.7506 14.3014C35.4062 14.2781 36.6834 13.2282 36.6834 11.7585Z" fill="white"/>
<path d="M41.3906 19.9471V18.1274C41.5562 18.1741 41.9109 18.1741 42.1001 18.1741C43.1645 18.1741 43.7794 17.7308 44.1578 16.541L44.3234 15.9577L40.208 4.75952H42.6441L45.5533 13.8814H45.6006L48.5097 4.75952H50.8749L46.6412 16.4477C45.6715 19.1306 44.6072 19.9938 42.2894 19.9938C42.1238 20.0171 41.5798 19.9704 41.3906 19.9471Z" fill="white"/>
<path fill-rule="evenodd" clip-rule="evenodd" d="M7.42657 1.42311C8.51454 0 10.0282 0 10.0282 0C10.0282 0 10.2411 1.32979 9.17678 2.61292C8.01786 3.96604 6.71703 3.73274 6.71703 3.73274C6.71703 3.73274 6.45686 2.68291 7.42657 1.42311ZM3.97345 3.96604C2.05768 3.96604 0 5.6691 0 8.88859C0 12.1781 2.41245 16.2841 4.35188 16.2841C5.01412 16.2841 6.05478 15.6075 7.09545 15.6075C8.11247 15.6075 8.86931 16.2374 9.81537 16.2374C11.9204 16.2374 13.4814 11.9214 13.4814 11.9214C13.4814 11.9214 11.2581 11.0816 11.2581 8.60864C11.2581 6.41565 13.0556 5.52912 13.0556 5.52912C13.0556 5.52912 12.1332 3.89605 9.81537 3.89605C8.46724 3.89605 7.42657 4.6426 6.88259 4.6426C6.19669 4.66593 5.22698 3.96604 3.97345 3.96604Z" fill="white"/>
</g>
<defs>
<clipPath id="clip0_25334_2747">
<rect width="50.8749" height="20.0001" fill="white"/>
</clipPath>
</defs>
</svg>
