<svg width="49" height="20" viewBox="0 0 49 20" fill="none" xmlns="http://www.w3.org/2000/svg">
<g clip-path="url(#clip0_25332_533)">
<path fill-rule="evenodd" clip-rule="evenodd" d="M22.9723 3.09995V7.90348H25.9347C26.6406 7.90348 27.2241 7.66583 27.6853 7.19172C28.1594 6.71877 28.397 6.15407 28.397 5.50113C28.397 4.86113 28.1594 4.30348 27.6853 3.82819C27.2241 3.3423 26.6406 3.09877 25.9347 3.09877H22.9723V3.09995ZM22.9723 9.59407V15.1658H21.2029V1.40936H25.897C27.0888 1.40936 28.1006 1.80583 28.9347 2.59995C29.7817 3.39407 30.2053 4.36113 30.2053 5.50113C30.2053 6.66701 29.7817 7.64113 28.9347 8.42113C28.1147 9.20348 27.1006 9.59289 25.8959 9.59289H22.9723V9.59407V9.59407ZM31.9935 12.2847C31.9935 12.7458 32.1888 13.1294 32.5806 13.4376C32.9711 13.7435 33.43 13.8976 33.9547 13.8976C34.6994 13.8976 35.3617 13.6223 35.9453 13.0729C36.53 12.5211 36.8206 11.8741 36.8206 11.1317C36.2688 10.6964 35.4994 10.4788 34.5123 10.4788C33.7947 10.4788 33.1947 10.6529 32.7147 10.9988C32.2335 11.3447 31.9935 11.7717 31.9935 12.2847ZM34.2829 5.44348C35.5911 5.44348 36.6229 5.79289 37.3806 6.49054C38.1359 7.18936 38.5147 8.14701 38.5147 9.36348V15.1658H36.8217V13.86H36.7453C36.0135 14.9352 35.0394 15.4741 33.8206 15.4741C32.7829 15.4741 31.9135 15.1658 31.2147 14.5517C30.5159 13.9364 30.1664 13.1682 30.1664 12.2458C30.1664 11.2717 30.5347 10.4976 31.2723 9.92113C32.01 9.34466 32.9935 9.05642 34.2253 9.05642C35.2747 9.05642 36.1417 9.24819 36.8206 9.63289V9.22819C36.8206 8.61407 36.577 8.09172 36.09 7.66348C35.6207 7.2412 35.0094 7.0114 34.3782 7.01995C33.39 7.01995 32.6088 7.43524 32.0311 8.26936L30.4735 7.28819C31.3323 6.05877 32.6029 5.44348 34.2829 5.44348M48.2276 5.75172L42.3217 19.3164H40.4947L42.6876 14.5705L38.8029 5.75172H40.7264L43.5347 12.5152H43.5723L46.3041 5.75054L48.2276 5.75172Z" fill="white"/>
<path fill-rule="evenodd" clip-rule="evenodd" d="M15.8215 8.39282C15.8215 7.83635 15.7745 7.29871 15.6851 6.78577H8.22153V9.83047H12.4968C12.4092 10.3169 12.2239 10.7806 11.9522 11.1935C11.6804 11.6064 11.3278 11.96 10.9156 12.2328V14.2093H13.4674C14.9615 12.8328 15.8215 10.7975 15.8215 8.39282" fill="#4285F4"/>
<path fill-rule="evenodd" clip-rule="evenodd" d="M8.22122 16.1176C10.3577 16.1176 12.1553 15.4176 13.4671 14.2105L10.9153 12.2329C10.2059 12.7105 9.29181 12.9894 8.22122 12.9894C6.15769 12.9894 4.40475 11.5988 3.77887 9.72583H1.15063V11.7623C1.80996 13.0722 2.8202 14.1731 4.06868 14.9423C5.31716 15.7116 6.75479 16.1189 8.22122 16.1188" fill="#34A853"/>
<path fill-rule="evenodd" clip-rule="evenodd" d="M3.77911 9.72587C3.44896 8.74426 3.44896 7.68159 3.77911 6.69998V4.66351H1.15087C0.595264 5.76372 0.306302 6.97921 0.307345 8.21175C0.307345 9.48822 0.613228 10.6941 1.15087 11.7612L3.77911 9.72469V9.72587Z" fill="#FABB05"/>
<path fill-rule="evenodd" clip-rule="evenodd" d="M8.22121 3.4364C9.38827 3.4364 10.433 3.8364 11.2565 4.62228V4.62346L13.5153 2.36699C12.1459 1.0917 10.3577 0.308167 8.22238 0.308167C6.75607 0.307971 5.31853 0.715084 4.07006 1.48411C2.8216 2.25313 1.81129 3.35383 1.15179 4.66346L3.78003 6.69993C4.40591 4.82699 6.15885 3.4364 8.22238 3.4364" fill="#E94235"/>
</g>
<defs>
<clipPath id="clip0_25332_533">
<rect width="48.2353" height="20" fill="white"/>
</clipPath>
</defs>
</svg>
