<svg width="14" height="13" viewBox="0 0 14 13" fill="none" xmlns="http://www.w3.org/2000/svg">
<path d="M9.48967 6.5255L8.741 5.77683C8.841 5.22472 8.6835 4.72833 8.2685 4.28767C7.85361 3.84711 7.34445 3.67683 6.741 3.77683L5.99233 3.02817C6.14278 2.96061 6.29706 2.90994 6.45517 2.87617C6.61328 2.84239 6.78633 2.8255 6.97433 2.8255C7.73078 2.8255 8.37289 3.08939 8.90067 3.61717C9.42845 4.14494 9.69234 4.78706 9.69234 5.5435C9.69234 5.7315 9.67545 5.90672 9.64167 6.06917C9.60789 6.2315 9.55722 6.38361 9.48967 6.5255ZM11.6102 8.59983L10.8743 7.91017C11.2966 7.58794 11.6716 7.23517 11.9993 6.85183C12.3271 6.4685 12.6077 6.03239 12.841 5.5435C12.2854 4.42128 11.4882 3.52961 10.4493 2.8685C9.41045 2.20739 8.25211 1.87683 6.97433 1.87683C6.65211 1.87683 6.33545 1.89906 6.02433 1.9435C5.71322 1.98794 5.40767 2.05461 5.10767 2.1435L4.33083 1.36667C4.75217 1.19911 5.1825 1.07561 5.62183 0.996166C6.06117 0.91661 6.512 0.876833 6.97433 0.876833C8.53667 0.876833 9.94561 1.30761 11.2012 2.16917C12.4567 3.03072 13.3726 4.1555 13.9487 5.5435C13.7017 6.13917 13.3827 6.69517 12.9917 7.2115C12.6006 7.72772 12.1401 8.1905 11.6102 8.59983ZM12.1487 12.4563L9.45133 9.77933C9.10945 9.90589 8.73056 10.0093 8.31467 10.0897C7.89889 10.17 7.45211 10.2102 6.97433 10.2102C5.40767 10.2102 3.99872 9.77939 2.7475 8.91783C1.49617 8.05628 0.580333 6.9315 0 5.5435C0.246111 4.95461 0.564056 4.40528 0.953833 3.8955C1.34361 3.38561 1.77267 2.9435 2.241 2.56917L0.394833 0.702499L1.0975 0L12.8512 11.7537L12.1487 12.4563ZM2.94367 3.27167C2.59144 3.552 2.24889 3.889 1.916 4.28267C1.58311 4.67622 1.31367 5.0965 1.10767 5.5435C1.66322 6.66572 2.46044 7.55739 3.49933 8.2185C4.53822 8.87961 5.69656 9.21017 6.97433 9.21017C7.27778 9.21017 7.57995 9.1845 7.88083 9.13317C8.18161 9.08194 8.43672 9.029 8.64617 8.97433L7.8025 8.11017C7.68883 8.15628 7.55722 8.193 7.40767 8.22033C7.25811 8.24778 7.11367 8.2615 6.97433 8.2615C6.21789 8.2615 5.57578 7.99761 5.048 7.46983C4.52022 6.94206 4.25633 6.29994 4.25633 5.5435C4.25633 5.4085 4.27006 5.26728 4.2975 5.11983C4.32483 4.97239 4.36156 4.83756 4.40767 4.71533L2.94367 3.27167Z" fill="black"/>
</svg>
