<svg width="85" height="17" viewBox="0 0 85 17" fill="none" xmlns="http://www.w3.org/2000/svg">
<g clip-path="url(#clip0_25334_2783)">
<path d="M77.1085 12.0144C76.1632 12.0144 75.7607 11.1282 75.7607 9.69627C75.7613 7.80873 76.1911 4.11902 78.2858 4.11902C79.2317 4.11902 79.5474 4.97721 79.5474 6.23588C79.5474 8.12323 79.0884 12.0144 77.1085 12.0144ZM78.888 0.0565303C72.949 0.0565303 70.3674 4.60619 70.3674 9.46841C70.3674 13.1582 71.8592 16.1049 76.3636 16.1049C82.4459 16.1049 84.9995 11.128 84.9995 6.32221C84.9995 2.68885 83.3639 0.0565303 78.888 0.0565303ZM65.3124 0.0565303C63.3337 0.0565303 61.8985 0.658509 60.3785 1.74438C59.8323 0.771741 58.7427 0.0565314 57.0785 0.0571385C55.1565 0.0571385 53.7227 0.830451 52.6613 1.60182L52.5179 0.314625H47.9552L45.5172 15.7329H50.8524L52.5459 4.92081C53.0048 4.69131 53.6925 4.377 54.3814 4.377C54.8971 4.377 55.3279 4.54845 55.3279 5.32159C55.3279 5.52103 55.2709 5.83535 55.2429 6.09302L53.7226 15.7327H59.0298L60.7218 4.92063C61.2106 4.66284 61.8699 4.37681 62.5287 4.37681C63.0466 4.37681 63.477 4.54833 63.477 5.32146C63.477 5.52085 63.4181 5.83516 63.3902 6.09289L61.8699 15.7326H67.1781L68.812 5.43439C68.8988 4.89215 68.9856 4.0625 68.9856 3.49051C68.9856 1.43 68.0379 0.0565303 65.3124 0.0565303ZM40.978 0.0568338C38.942 0.0568338 37.5071 0.830147 36.4174 1.54511L36.3588 0.314503H31.7398L29.3014 15.7327H34.6384L36.3305 4.92063C36.7895 4.69119 37.4786 4.37681 38.1661 4.37681C38.6837 4.37681 39.1142 4.54815 39.1142 5.23482C39.1142 5.52085 39.0273 6.03637 38.999 6.2924L37.5071 15.7326H42.8142L44.4497 5.43439C44.5363 4.89215 44.6235 4.0625 44.6235 3.49051C44.6235 1.43 43.6753 0.0565302 40.978 0.0568338ZM21.0349 6.54989C21.1786 4.83387 22.4968 3.63349 23.5014 3.63349C24.0755 3.63349 24.5628 3.97604 24.5628 4.66272C24.5628 6.09271 22.0379 6.54989 21.0349 6.54989ZM24.0186 0.0565303C18.3382 0.0565303 15.5829 4.97715 15.5829 9.61139C15.5828 13.1868 17.2766 16.0469 22.0093 16.0469C23.8751 16.0469 25.7973 15.6462 27.0307 15.0458L27.69 10.5842C25.9395 11.4707 24.5927 11.8132 23.186 11.8132C21.8943 11.8132 20.9199 11.1281 20.9199 9.38201C23.8468 9.35372 28.895 8.15304 28.8948 4.23371C28.8948 1.80254 27.146 0.0565303 24.0186 0.0565303ZM9.00786 1.00118C9.32333 1.65968 9.5252 2.45935 9.5252 3.63349C9.52514 5.77852 8.00322 8.92471 6.77 10.9267L5.45023 0.342555L-3.05176e-05 0.858138L2.49624 15.7327H8.72074C11.4459 12.1574 14.8037 7.06571 14.8038 3.1462C14.8038 1.91729 14.545 0.944472 13.9712 5.84865e-06L9.00786 1.00118Z" fill="white"/>
</g>
<defs>
<clipPath id="clip0_25334_2783">
<rect width="84.9995" height="16.105" fill="white"/>
</clipPath>
</defs>
</svg>
