<svg width="96" height="20" viewBox="0 0 96 20" fill="none" xmlns="http://www.w3.org/2000/svg">
<g clip-path="url(#clip0_25334_2735)">
<path d="M88.7597 11.112C88.1384 9.60257 87.552 8.07896 87.001 6.54241H89.0346C89.3937 7.72673 89.8004 8.89921 90.2311 10.0835C90.6737 11.2675 91.1281 12.44 91.6186 13.5885C92.4963 11.2741 93.2747 8.92329 93.9514 6.54241H95.9133C95.6457 7.39827 95.3585 8.24788 95.0519 9.09057C94.6986 10.071 94.3357 11.048 93.9633 12.0214C93.5565 13.0742 93.0781 14.2582 92.5517 15.5504C92.0493 16.7706 91.4871 17.6438 90.889 18.1821C90.2788 18.7085 89.537 18.9837 88.6401 18.9837C88.399 18.9835 88.1586 18.9594 87.9223 18.9117V17.297C88.042 17.3088 88.1377 17.3206 88.2093 17.3328H88.4247C88.9511 17.3328 89.3937 17.1891 89.7524 16.9139C90.1114 16.6387 90.4343 16.1843 90.7335 15.5382C90.0397 14.0909 89.3937 12.6195 88.7716 11.112H88.7597V11.112ZM85.6253 15.4067H83.8071V14.1626C83.4842 14.6291 83.0775 14.9882 82.5751 15.2394C82.0724 15.4906 81.5101 15.6221 80.8762 15.6221C80.0868 15.6221 79.393 15.4186 78.7946 15.0237C78.1847 14.6291 77.7181 14.0669 77.3713 13.3731C77.0244 12.6672 76.8567 11.8659 76.8567 10.9686C76.8567 10.0714 77.0362 9.25793 77.3831 8.55201C77.73 7.85825 78.2205 7.30817 78.8426 6.91329C79.4647 6.51841 80.1825 6.31489 80.9841 6.31489C81.594 6.31489 82.1322 6.43489 82.6228 6.67393C83.1012 6.91329 83.5079 7.24833 83.8189 7.67873V6.54273H85.6375V15.4307L85.6253 15.4067V15.4067ZM83.7713 9.62881C83.5677 9.12641 83.2567 8.71969 82.8263 8.43265C82.3956 8.14529 81.905 7.98977 81.3428 7.98977C80.5533 7.98977 79.9191 8.25313 79.4407 8.79137C78.9741 9.32961 78.7351 10.0474 78.7351 10.9568C78.7351 11.8656 78.9623 12.5955 79.4167 13.1338C79.8714 13.672 80.4813 13.9354 81.2711 13.9354C81.8452 13.9354 82.3597 13.7917 82.8023 13.4928C83.2449 13.1936 83.5799 12.799 83.7713 12.2963V9.62881V9.62881ZM66.8801 3.48001H71.402C72.921 3.48001 74.0935 3.82689 74.9188 4.52065C75.7444 5.21473 76.1629 6.19553 76.1629 7.48737C76.1629 8.77953 75.7562 9.76033 74.9309 10.4541C74.1053 11.1482 72.9332 11.495 71.402 11.495H68.8298V15.4186H66.8801V3.48001ZM71.2465 9.73633C72.2513 9.73633 72.9809 9.55713 73.4596 9.18593C73.938 8.81537 74.1773 8.25313 74.1773 7.49953C74.1773 6.74593 73.938 6.14753 73.4596 5.78881C72.9809 5.42977 72.2394 5.23841 71.2465 5.23841H68.8298V9.73633H71.2465ZM23.0199 3.39969H25.3972L29.4388 10.7117L33.481 3.39969H35.8068V15.4144H33.8676V6.20609L30.3226 12.5827H28.5031L24.9591 6.20609V15.4144H23.0199V3.39969ZM41.8829 7.87937C40.4922 7.87937 39.6545 8.92577 39.4541 10.2218H44.1741C44.0769 8.88705 43.3066 7.87937 41.8829 7.87937ZM37.5316 10.9603C37.5316 8.23329 39.2941 6.24833 41.9165 6.24833C44.4961 6.24833 46.0365 8.20801 46.0365 11.1059V11.6387H39.4541C39.6877 13.0483 40.6231 13.9984 42.1316 13.9984C43.3351 13.9984 44.0874 13.6314 44.8004 12.9597L45.8308 14.2214C44.8602 15.1142 43.6257 15.6288 42.0628 15.6288C39.2237 15.6288 37.5316 13.5584 37.5316 10.9603V10.9603ZM48.3879 8.05153H46.6026V6.46337H48.3879V3.83777H50.2586V6.46337H52.9706V8.05121H50.2586V12.0758C50.2586 13.4499 50.698 13.9382 51.7777 13.9382C52.2708 13.9382 52.5533 13.896 52.9706 13.8262V15.3971C52.4506 15.544 51.9543 15.6115 51.4173 15.6115C49.3975 15.6115 48.3879 14.5078 48.3879 12.2989V8.05121V8.05153V8.05153ZM60.849 9.59553C60.4733 8.64673 59.6349 7.94817 58.4029 7.94817C56.802 7.94817 55.7773 9.08417 55.7773 10.9347C55.7773 12.7389 56.7207 13.9299 58.3265 13.9299C59.5885 13.9299 60.4897 13.1952 60.849 12.2819V9.59521V9.59553ZM62.7201 15.4144H60.8836V14.1613C60.37 14.8989 59.4359 15.6288 57.9226 15.6288C55.4893 15.6288 53.8631 13.5917 53.8631 10.9344C53.8631 8.25249 55.5284 6.24833 58.026 6.24833C59.2605 6.24833 60.2292 6.74209 60.8836 7.61345V6.46337H62.7201V15.4144Z" fill="white"/>
<path d="M2.05504 11.3334C2.05504 12.0598 2.2144 12.6176 2.42304 12.9552C2.696 13.3968 3.10368 13.5843 3.51904 13.5843C4.05504 13.5843 4.54528 13.4515 5.49024 12.1446C6.24672 11.0973 7.13856 9.6272 7.73888 8.7056L8.75488 7.144C9.4608 6.05984 10.2781 4.8544 11.2147 4.03744C11.9795 3.37056 12.8048 3 13.6352 3C15.0294 3 16.3571 3.80768 17.3734 5.32288C18.4854 6.98208 19.0253 9.07232 19.0253 11.2291C19.0253 12.5114 18.7725 13.4531 18.3427 14.1978C17.927 14.9178 17.1171 15.6368 15.7552 15.6368V13.5843C16.9216 13.5843 17.2125 12.5123 17.2125 11.2861C17.2125 9.53792 16.8051 7.59808 15.9072 6.21216C15.2704 5.2288 14.4445 4.62816 13.536 4.62816C12.5536 4.62816 11.7632 5.36928 10.8746 6.69056C10.4019 7.39232 9.91712 8.248 9.37248 9.21312L8.77312 10.2749C7.56896 12.4099 7.264 12.8963 6.66208 13.6989C5.60672 15.104 4.7056 15.6368 3.51968 15.6368C2.11232 15.6368 1.22208 15.0272 0.67136 14.1091C0.2208 13.3606 0 12.3789 0 11.2602L2.05504 11.3338V11.3334V11.3334Z" fill="#0081FB"/>
<path d="M1.62012 5.46784C2.5622 4.01568 3.92188 3 5.48156 3C6.38492 3 7.28252 3.2672 8.22012 4.03264C9.2454 4.86976 10.3385 6.24768 11.702 8.51904L12.191 9.33408C13.3712 11.3005 14.0428 12.312 14.4358 12.7891C14.9414 13.4016 15.2953 13.5843 15.7552 13.5843C16.9216 13.5843 17.2124 12.5123 17.2124 11.2861L19.0252 11.2291C19.0252 12.5114 18.7724 13.4531 18.3427 14.1978C17.927 14.9178 17.1171 15.6365 15.7552 15.6365C14.9081 15.6365 14.158 15.4528 13.3283 14.6701C12.6905 14.0694 11.9449 13.0022 11.3712 12.0429L9.66492 9.19264C8.80892 7.76224 8.02332 6.69568 7.56892 6.2128C7.07996 5.69344 6.45148 5.06624 5.4486 5.06624C4.63676 5.06624 3.94748 5.63584 3.37052 6.5072L1.62044 5.46784H1.62012Z" fill="url(#paint0_linear_25334_2735)"/>
<path d="M5.44832 5.06624C4.63648 5.06624 3.9472 5.63584 3.37024 6.5072C2.55424 7.73856 2.05504 9.57248 2.05504 11.3334C2.05504 12.0598 2.2144 12.6176 2.42304 12.9552L0.67072 14.1091C0.22112 13.3606 0 12.3789 0 11.2602C0 9.2256 0.5584 7.10528 1.62016 5.46784C2.56224 4.01568 3.92192 3 5.4816 3L5.44864 5.06624H5.44832V5.06624Z" fill="url(#paint1_linear_25334_2735)"/>
</g>
<defs>
<linearGradient id="paint0_linear_25334_2735" x1="4.0358" y1="10.7408" x2="17.1356" y2="11.4022" gradientUnits="userSpaceOnUse">
<stop stop-color="#0064E1"/>
<stop offset="0.4" stop-color="#0064E1"/>
<stop offset="0.83" stop-color="#0073EE"/>
<stop offset="1" stop-color="#0082FB"/>
</linearGradient>
<linearGradient id="paint1_linear_25334_2735" x1="2.97728" y1="12.1962" x2="2.97728" y2="7.36672" gradientUnits="userSpaceOnUse">
<stop stop-color="#0082FB"/>
<stop offset="1" stop-color="#0064E0"/>
</linearGradient>
<clipPath id="clip0_25334_2735">
<rect width="96" height="16" fill="white" transform="translate(0 3)"/>
</clipPath>
</defs>
</svg>
