<svg width="121" height="19" viewBox="0 0 121 19" fill="none" xmlns="http://www.w3.org/2000/svg">
<path d="M10.2102 5.28409C10.1193 4.47727 9.74432 3.85227 9.08523 3.40909C8.42613 2.96023 7.59659 2.7358 6.59659 2.7358C5.88068 2.7358 5.26136 2.84943 4.73863 3.0767C4.21591 3.2983 3.80966 3.60511 3.51988 3.99716C3.23579 4.38352 3.09375 4.82386 3.09375 5.31818C3.09375 5.73295 3.19034 6.09091 3.38352 6.39205C3.58238 6.69318 3.84091 6.94602 4.15909 7.15057C4.48295 7.34943 4.82954 7.51705 5.19886 7.65341C5.56818 7.78409 5.92329 7.89205 6.2642 7.97727L7.96875 8.42045C8.52557 8.55682 9.09659 8.74148 9.68182 8.97443C10.267 9.20739 10.8096 9.5142 11.3096 9.89488C11.8096 10.2756 12.213 10.7472 12.5199 11.3097C12.8324 11.8722 12.9886 12.5455 12.9886 13.3296C12.9886 14.3182 12.7329 15.196 12.2216 15.9631C11.7159 16.7301 10.9801 17.3352 10.0142 17.7784C9.05398 18.2216 7.89204 18.4432 6.52841 18.4432C5.22159 18.4432 4.09091 18.2358 3.13636 17.821C2.18182 17.4063 1.43466 16.8182 0.894886 16.0568C0.355113 15.2898 0.0568181 14.3807 0 13.3296H2.64204C2.69318 13.9602 2.89773 14.4858 3.25568 14.9063C3.61932 15.321 4.08238 15.6307 4.64488 15.8352C5.21307 16.0341 5.83523 16.1335 6.51136 16.1335C7.25568 16.1335 7.91761 16.0171 8.49716 15.7841C9.08238 15.5455 9.54261 15.2159 9.87784 14.7955C10.213 14.3693 10.3807 13.8722 10.3807 13.304C10.3807 12.787 10.2329 12.3637 9.9375 12.0341C9.64773 11.7046 9.25284 11.4318 8.75284 11.2159C8.25852 11 7.69886 10.8097 7.07386 10.6449L5.01136 10.0824C3.61363 9.70168 2.50568 9.14205 1.6875 8.40341C0.875 7.66477 0.46875 6.6875 0.46875 5.47159C0.46875 4.46591 0.741477 3.58807 1.28693 2.83807C1.83238 2.08807 2.57102 1.50568 3.50284 1.09091C4.43466 0.67045 5.48579 0.460227 6.65625 0.460227C7.83807 0.460227 8.88068 0.66761 9.78409 1.08239C10.6932 1.49716 11.4091 2.06818 11.9318 2.79545C12.4545 3.51705 12.7273 4.34659 12.75 5.28409H10.2102ZM16.8348 13.7131L16.8178 10.6023H17.261L22.4769 5.0625H25.528L19.5792 11.3693H19.1786L16.8348 13.7131ZM14.4911 18.1534V0.69886H17.0394V18.1534H14.4911ZM22.7581 18.1534L18.0706 11.9318L19.8263 10.1506L25.886 18.1534H22.7581ZM26.4105 18.1534V5.0625H28.9588V18.1534H26.4105ZM27.6974 3.04261C27.2542 3.04261 26.8735 2.89489 26.5553 2.59943C26.2428 2.2983 26.0866 1.94034 26.0866 1.52557C26.0866 1.10511 26.2428 0.74716 26.5553 0.451704C26.8735 0.150568 27.2542 0 27.6974 0C28.1406 0 28.5184 0.150568 28.8309 0.451704C29.1491 0.74716 29.3082 1.10511 29.3082 1.52557C29.3082 1.94034 29.1491 2.2983 28.8309 2.59943C28.5184 2.89489 28.1406 3.04261 27.6974 3.04261ZM33.4953 10.3807V18.1534H30.947V5.0625H33.393V7.19318H33.555C33.8561 6.5 34.3277 5.94318 34.9698 5.52273C35.6175 5.10227 36.4328 4.89205 37.4158 4.89205C38.3078 4.89205 39.0891 5.07955 39.7595 5.45455C40.43 5.82386 40.9499 6.375 41.3192 7.10795C41.6885 7.84091 41.8732 8.74716 41.8732 9.82668V18.1534H39.3249V10.1335C39.3249 9.18466 39.0777 8.44318 38.5834 7.90909C38.0891 7.36932 37.4101 7.09943 36.5465 7.09943C35.9555 7.09943 35.43 7.22727 34.9698 7.48295C34.5152 7.73864 34.1544 8.11364 33.8874 8.60795C33.626 9.09659 33.4953 9.68748 33.4953 10.3807ZM66.1377 9.67328V11.8807H42.1377V9.67328H66.1377ZM81.1125 6.375H78.4534C78.3511 5.80682 78.1608 5.30682 77.8824 4.875C77.604 4.44318 77.263 4.0767 76.8596 3.77557C76.4562 3.47443 76.0045 3.24716 75.5045 3.09375C75.0102 2.94034 74.4846 2.86364 73.9278 2.86364C72.9221 2.86364 72.0216 3.11648 71.2261 3.62216C70.4363 4.12784 69.8113 4.86932 69.3511 5.84659C68.8966 6.82386 68.6693 8.01705 68.6693 9.42614C68.6693 10.8466 68.8966 12.0455 69.3511 13.0227C69.8113 14 70.4392 14.7387 71.2346 15.2387C72.0301 15.7387 72.925 15.9887 73.9193 15.9887C74.4704 15.9887 74.9932 15.9148 75.4875 15.7671C75.9875 15.6137 76.4392 15.3892 76.8426 15.0938C77.246 14.7983 77.5869 14.4375 77.8653 14.0114C78.1494 13.5796 78.3454 13.0852 78.4534 12.5284L81.1125 12.537C80.9704 13.3949 80.6949 14.1847 80.2858 14.9063C79.8824 15.6222 79.3625 16.2415 78.7261 16.7642C78.0954 17.2813 77.3738 17.6818 76.5613 17.9659C75.7488 18.25 74.8625 18.3921 73.9023 18.3921C72.3909 18.3921 71.0443 18.0341 69.8625 17.3182C68.6807 16.5966 67.7488 15.5654 67.067 14.2245C66.3909 12.8835 66.0528 11.2841 66.0528 9.42614C66.0528 7.5625 66.3937 5.96307 67.0755 4.62784C67.7574 3.28693 68.6892 2.25852 69.871 1.54261C71.0528 0.82102 72.3966 0.460227 73.9023 0.460227C74.8284 0.460227 75.692 0.59375 76.4932 0.8608C77.3 1.12216 78.0244 1.50852 78.6665 2.01989C79.3085 2.52557 79.8398 3.14489 80.2602 3.87784C80.6807 4.60511 80.9648 5.4375 81.1125 6.375ZM85.1675 0.69886V18.1534H82.6192V0.69886H85.1675ZM87.1558 18.1534V5.0625H89.7041V18.1534H87.1558ZM88.4427 3.04261C87.9995 3.04261 87.6188 2.89489 87.3007 2.59943C86.9882 2.2983 86.8319 1.94034 86.8319 1.52557C86.8319 1.10511 86.9882 0.74716 87.3007 0.451704C87.6188 0.150568 87.9995 0 88.4427 0C88.8859 0 89.2637 0.150568 89.5762 0.451704C89.8944 0.74716 90.0535 1.10511 90.0535 1.52557C90.0535 1.94034 89.8944 2.2983 89.5762 2.59943C89.2637 2.89489 88.8859 3.04261 88.4427 3.04261ZM94.2406 10.3807V18.1534H91.6923V5.0625H94.1384V7.19318H94.3003C94.6014 6.5 95.073 5.94318 95.7151 5.52273C96.3628 5.10227 97.1781 4.89205 98.1611 4.89205C99.0531 4.89205 99.8344 5.07955 100.505 5.45455C101.175 5.82386 101.695 6.375 102.064 7.10795C102.434 7.84091 102.618 8.74716 102.618 9.82668V18.1534H100.07V10.1335C100.07 9.18466 99.823 8.44318 99.3287 7.90909C98.8344 7.36932 98.1554 7.09943 97.2918 7.09943C96.7009 7.09943 96.1753 7.22727 95.7151 7.48295C95.2605 7.73864 94.8997 8.11364 94.6327 8.60795C94.3713 9.09659 94.2406 9.68748 94.2406 10.3807ZM104.596 18.1534V5.0625H107.144V18.1534H104.596ZM105.883 3.04261C105.44 3.04261 105.059 2.89489 104.741 2.59943C104.428 2.2983 104.272 1.94034 104.272 1.52557C104.272 1.10511 104.428 0.74716 104.741 0.451704C105.059 0.150568 105.44 0 105.883 0C106.326 0 106.704 0.150568 107.017 0.451704C107.335 0.74716 107.494 1.10511 107.494 1.52557C107.494 1.94034 107.335 2.2983 107.017 2.59943C106.704 2.89489 106.326 3.04261 105.883 3.04261ZM114.647 18.4176C113.38 18.4176 112.289 18.1307 111.374 17.5568C110.465 16.9773 109.766 16.179 109.278 15.162C108.789 14.1449 108.545 12.9801 108.545 11.6676C108.545 10.3381 108.795 9.16477 109.295 8.14773C109.795 7.125 110.499 6.3267 111.408 5.75284C112.317 5.17898 113.388 4.89205 114.621 4.89205C115.616 4.89205 116.502 5.07671 117.28 5.44602C118.059 5.80966 118.687 6.32102 119.164 6.98011C119.647 7.6392 119.934 8.40909 120.025 9.28977H117.545C117.408 8.67614 117.096 8.14773 116.607 7.70455C116.124 7.26136 115.476 7.03977 114.664 7.03977C113.954 7.03977 113.332 7.22727 112.797 7.60227C112.269 7.97159 111.857 8.5 111.562 9.1875C111.266 9.86928 111.118 10.6762 111.118 11.608C111.118 12.5625 111.263 13.3864 111.553 14.0796C111.843 14.7727 112.252 15.3097 112.78 15.6904C113.314 16.071 113.942 16.2614 114.664 16.2614C115.147 16.2614 115.584 16.1733 115.976 15.9972C116.374 15.8154 116.707 15.5568 116.974 15.2216C117.246 14.8864 117.437 14.483 117.545 14.0114H120.025C119.934 14.858 119.658 15.6137 119.198 16.2784C118.738 16.9432 118.121 17.4659 117.349 17.8466C116.582 18.2273 115.681 18.4176 114.647 18.4176Z" fill="black"/>
</svg>
