<svg width="52" height="22" viewBox="0 0 52 22" fill="none" xmlns="http://www.w3.org/2000/svg">
<path d="M6.17225 9.31947C4.08961 8.8701 3.16181 8.69426 3.16181 7.89601C3.16181 7.1452 3.78968 6.7712 5.04543 6.7712C6.14982 6.7712 6.95709 7.25127 7.55133 8.19187C7.59618 8.26443 7.68868 8.28955 7.76436 8.25048L10.1077 7.07264C10.1918 7.03077 10.2226 6.92471 10.175 6.84377C9.20231 5.16632 7.40558 4.24805 5.03983 4.24805C1.93128 4.24805 0 5.77199 0 8.19466C0 10.768 2.35173 11.4184 4.43718 11.8677C6.52263 12.3171 7.45323 12.4929 7.45323 13.2912C7.45323 14.0895 6.7749 14.4663 5.42104 14.4663C4.17089 14.4663 3.24309 13.8969 2.68249 12.7916C2.64044 12.7107 2.54234 12.6772 2.46105 12.719L0.123333 13.8717C0.0420453 13.9136 0.00840906 14.0113 0.0504543 14.095C0.978254 15.9511 2.8815 16.995 5.42384 16.995C8.66133 16.995 10.6178 15.4962 10.6178 12.9981C10.6178 10.5001 8.25489 9.77442 6.17225 9.32505V9.31947Z" fill="white"/>
<path d="M18.7298 4.24805C17.4011 4.24805 16.2267 4.71695 15.383 5.55149C15.3297 5.60173 15.2428 5.56545 15.2428 5.49288V0.164675C15.2428 0.0725685 15.1699 0 15.0774 0H12.1455C12.053 0 11.9801 0.0725685 11.9801 0.164675V16.7019C11.9801 16.794 12.053 16.8666 12.1455 16.8666H15.0774C15.1699 16.8666 15.2428 16.794 15.2428 16.7019V9.44786C15.2428 8.04673 16.322 6.97216 17.7767 6.97216C19.2315 6.97216 20.2854 8.0244 20.2854 9.44786V16.7019C20.2854 16.794 20.3583 16.8666 20.4508 16.8666H23.3828C23.4753 16.8666 23.5482 16.794 23.5482 16.7019V9.44786C23.5482 6.39998 21.5412 4.24805 18.7298 4.24805Z" fill="white"/>
<path d="M29.4962 3.77356C27.904 3.77356 26.4128 4.25921 25.3421 4.95978C25.2692 5.00722 25.244 5.10491 25.2888 5.18027L26.581 7.37686C26.6287 7.45501 26.7296 7.48293 26.8081 7.43548C27.6209 6.94704 28.5515 6.69305 29.5018 6.69863C32.0609 6.69863 33.9417 8.49609 33.9417 10.8713C33.9417 12.8949 32.4365 14.3937 30.5277 14.3937C28.972 14.3937 27.8928 13.4922 27.8928 12.2194C27.8928 11.4909 28.204 10.8936 29.014 10.4722C29.0981 10.4275 29.129 10.3243 29.0785 10.2433L27.8592 8.18907C27.8199 8.12209 27.7359 8.09138 27.6602 8.1193C26.026 8.72217 24.8796 10.1735 24.8796 12.1217C24.8796 15.0691 27.2369 17.2685 30.5249 17.2685C34.365 17.2685 37.126 14.6198 37.126 10.8211C37.126 6.74887 33.9137 3.77356 29.4962 3.77356Z" fill="white"/>
<path d="M45.7032 4.2229C44.2204 4.2229 42.8946 4.76996 41.9276 5.73009C41.8743 5.78312 41.7874 5.74405 41.7874 5.67148V4.51597C41.7874 4.42386 41.7145 4.35129 41.622 4.35129H38.7657C38.6732 4.35129 38.6004 4.42386 38.6004 4.51597V21.0281C38.6004 21.1202 38.6732 21.1928 38.7657 21.1928H41.6977C41.7902 21.1928 41.8631 21.1202 41.8631 21.0281V15.6134C41.8631 15.5408 41.95 15.5045 42.0032 15.552C42.9675 16.4451 44.2428 16.967 45.7032 16.967C49.1425 16.967 51.825 14.1955 51.825 10.595C51.825 6.99446 49.1397 4.2229 45.7032 4.2229ZM45.1482 14.1704C43.1917 14.1704 41.7089 12.6213 41.7089 10.5726C41.7089 8.52398 43.1889 6.97492 45.1482 6.97492C47.1075 6.97492 48.5847 8.49886 48.5847 10.5726C48.5847 12.6464 47.1272 14.1704 45.1454 14.1704H45.1482Z" fill="white"/>
</svg>
