<svg width="33" height="22" viewBox="0 0 33 22" fill="none" xmlns="http://www.w3.org/2000/svg">
<path d="M7.80093 6.54703H9.78688C11.1654 6.54703 11.8423 7.11333 11.8423 8.06127C11.8423 9.00921 11.19 9.57551 9.84842 9.57551H7.80093V6.54703Z" fill="white"/>
<path d="M16.3481 13.8105C15.5727 13.8105 15.265 13.3919 15.265 12.9733C15.265 12.407 15.905 12.1485 17.1605 12.0008L18.1451 11.89C18.0836 12.9733 17.3574 13.8105 16.3481 13.8105Z" fill="white"/>
<path fill-rule="evenodd" clip-rule="evenodd" d="M3.2137 0C1.43882 0 0 1.43915 0 3.21443V17.8336C0 19.6089 1.43882 21.0481 3.2137 21.0481H29.4021C31.177 21.0481 32.6158 19.6089 32.6158 17.8336V3.21443C32.6158 1.43915 31.177 0 29.4021 0H3.2137ZM7.80093 14.7215V11.0159H10.1315C12.2608 11.0159 13.3931 9.82173 13.3931 8.01203C13.3931 6.20233 12.2608 5.11897 10.1315 5.11897H6.29935V14.7215H7.80093ZM16.0404 14.9184C17.1851 14.9184 17.9359 14.4137 18.2805 13.5519C18.379 14.5122 18.9574 15.0046 20.2129 14.6722L20.2252 13.6504C19.7206 13.6997 19.6221 13.515 19.6221 12.9856V10.4742C19.6221 8.9969 18.6497 8.12283 16.8528 8.12283C15.0804 8.12283 14.0588 9.00921 14.0588 10.5111H15.4373C15.4373 9.7971 15.942 9.36622 16.8282 9.36622C17.7636 9.36622 18.1943 9.77248 18.182 10.4742V10.7943L16.5943 10.9666C14.8096 11.1636 13.825 11.8407 13.825 13.0226C13.825 13.9951 14.5142 14.9184 16.0404 14.9184ZM24.7843 15.2016C24.1566 16.7281 23.1473 17.1836 21.5719 17.1836H20.8949V15.9279H21.6211C22.4827 15.9279 22.9012 15.6571 23.3566 14.8815L20.5626 8.3198H22.1134L24.1074 13.1087L25.8797 8.3198H27.3936L24.7843 15.2016Z" fill="white"/>
</svg>
